<svg width="398" height="77" viewBox="0 0 398 77" fill="none" xmlns="http://www.w3.org/2000/svg">
<g clip-path="url(#clip0_325_630)">
<path d="M51.7759 57.6172V66.3793C51.7759 72.245 47.0208 77 41.1552 77H35.8448C29.9792 77 25.2241 72.245 25.2241 66.3793V53.1034C25.2241 52.3702 24.6298 51.7759 23.8966 51.7759H10.6207C4.75504 51.7759 0 47.0208 0 41.1552V35.8448C0 29.9792 4.75504 25.2241 10.6207 25.2241H23.8966C24.6298 25.2241 25.2241 24.6298 25.2241 23.8966V10.6207C25.2241 4.75504 29.9792 0 35.8448 0H41.1552C47.0208 0 51.7759 4.75504 51.7759 10.6207V57.6172Z" fill="#C4D23D"/>
<path d="M54.4312 57.0862C58.4485 57.0862 58.4485 59.7414 62.5175 59.7414C68.5819 59.7414 69.1554 51.7759 65.1435 47.7931C61.1315 43.8103 61.1262 38.5 54.4312 38.5C47.7362 38.5 47.7362 43.8103 43.7189 47.7931C39.7016 51.7759 40.2804 59.7414 46.3448 59.7414C50.4139 59.7414 50.4139 57.0862 54.4312 57.0862Z" fill="#39A6EC"/>
<path d="M47.4606 34.4675C50.3648 34.0509 52.2548 30.4763 51.6821 26.4832C51.1093 22.4902 48.2907 19.5909 45.3865 20.0075C42.4823 20.424 40.5922 23.9987 41.165 27.9917C41.7377 31.9848 44.5563 34.8841 47.4606 34.4675Z" fill="#39A6EC"/>
<path d="M38.4419 43.5204C40.4216 42.5613 40.9898 39.6441 39.7111 37.0046C38.4324 34.365 35.7909 33.0027 33.8113 33.9618C31.8316 34.9208 31.2634 37.838 32.5421 40.4776C33.8208 43.1171 36.4623 44.4794 38.4419 43.5204Z" fill="#39A6EC"/>
<path d="M67.69 27.9513C68.2626 23.959 66.3731 20.385 63.4696 19.9685C60.5661 19.5521 57.7482 22.4509 57.1755 26.4432C56.6029 30.4355 58.4924 34.0095 61.3959 34.4259C64.2994 34.8424 67.1174 31.9436 67.69 27.9513Z" fill="#39A6EC"/>
<path d="M76.3036 40.4358C77.5823 37.7963 77.0141 34.8791 75.0344 33.92C73.0548 32.961 70.4134 34.3233 69.1346 36.9629C67.8559 39.6024 68.4242 42.5196 70.4038 43.4787C72.3835 44.4377 75.0249 43.0754 76.3036 40.4358Z" fill="#39A6EC"/>
<path d="M5.31025 37.1725C4.57705 37.1725 3.98267 36.5782 3.98267 35.845C3.98706 32.1808 6.95639 29.2114 10.6206 29.207C11.3538 29.207 11.9482 29.8014 11.9482 30.5346C11.9482 31.2678 11.3538 31.8622 10.6206 31.8622C8.42098 31.8622 6.63784 33.6453 6.63784 35.845C6.63784 36.1971 6.49797 36.5347 6.249 36.7837C6.00003 37.0327 5.66235 37.1725 5.31025 37.1725Z" fill="#AFBA49"/>
<path d="M17.2587 31.8622H15.9311C15.1979 31.8622 14.6035 31.2678 14.6035 30.5346C14.6035 29.8014 15.1979 29.207 15.9311 29.207H17.2587C17.9919 29.207 18.5863 29.8014 18.5863 30.5346C18.5863 31.2678 17.9919 31.8622 17.2587 31.8622Z" fill="#AFBA49"/>
</g>
<path d="M134.461 54.8203C134.398 54.4609 134.312 53.8047 134.203 52.8516C134.094 51.8984 133.969 50.7734 133.828 49.4766C133.703 48.1797 133.562 46.7578 133.406 45.2109C133.25 43.6641 133.102 42.1094 132.961 40.5469C132.602 36.8906 132.227 32.8594 131.836 28.4531L126.703 54.1875L116.672 54.8203C115.828 51.3516 115.031 47.9922 114.281 44.7422C113.953 43.3672 113.617 41.9453 113.273 40.4766C112.945 38.9922 112.617 37.5469 112.289 36.1406C111.977 34.7188 111.68 33.3672 111.398 32.0859C111.133 30.8047 110.906 29.6641 110.719 28.6641C110.656 29.5078 110.57 30.5312 110.461 31.7344C110.367 32.9219 110.258 34.2109 110.133 35.6016C110.023 36.9766 109.898 38.4062 109.758 39.8906C109.633 41.375 109.5 42.8281 109.359 44.25C109.047 47.5938 108.711 51.1172 108.352 54.8203H100.055C100.977 49.0234 101.773 43.2422 102.445 37.4766C103.133 31.7109 103.648 25.8594 103.992 19.9219L117.633 19.1953L123.188 44.6484C123.859 41.4453 124.492 38.3047 125.086 35.2266C125.336 33.9141 125.586 32.5469 125.836 31.125C126.102 29.7031 126.344 28.2969 126.562 26.9062C126.781 25.5 126.984 24.1406 127.172 22.8281C127.359 21.5156 127.508 20.3047 127.617 19.1953H140.578C140.891 24.9453 141.336 30.6953 141.914 36.4453C142.492 42.1953 143.227 48.0156 144.117 53.9062L134.461 54.8203ZM173.203 29.7188C173.125 33.8125 173.023 37.3438 172.898 40.3125C172.773 43.2812 172.648 45.7578 172.523 47.7422C172.383 50.0547 172.242 52 172.102 53.5781C172.008 55.4688 171.656 57.1953 171.047 58.7578C170.453 60.3203 169.609 61.6641 168.516 62.7891C167.422 63.9141 166.094 64.7812 164.531 65.3906C162.969 66.0156 161.172 66.3281 159.141 66.3281C157.781 66.3281 156.594 66.2422 155.578 66.0703C154.562 65.9141 153.672 65.6719 152.906 65.3438C152.156 65.0312 151.508 64.6406 150.961 64.1719C150.43 63.7031 149.961 63.1562 149.555 62.5312C149.148 61.9219 148.789 61.2344 148.477 60.4688C148.18 59.7031 147.891 58.875 147.609 57.9844L156.211 57.7969C156.211 58.0156 156.203 58.2188 156.188 58.4062C156.172 58.6094 156.164 58.8047 156.164 58.9922C156.164 60.1641 156.258 61.2969 156.445 62.3906C157.055 62.4688 157.586 62.5312 158.039 62.5781C158.492 62.625 158.938 62.6484 159.375 62.6484C159.969 62.6484 160.578 62.6094 161.203 62.5312C161.828 62.4531 162.578 62.3438 163.453 62.2031C163.609 60.5625 163.742 58.9297 163.852 57.3047C163.961 55.6953 164.055 54.0781 164.133 52.4531C163.477 52.7344 162.844 52.9531 162.234 53.1094C161.641 53.25 161.117 53.3594 160.664 53.4375C160.133 53.5156 159.625 53.5625 159.141 53.5781C156.875 53.5781 155.008 53.2969 153.539 52.7344C152.07 52.1562 150.883 51.3516 149.977 50.3203C149.086 49.2734 148.43 48.0234 148.008 46.5703C147.602 45.1016 147.32 43.4844 147.164 41.7188C147.008 39.9531 146.93 38.0625 146.93 36.0469C146.93 34.0156 146.906 31.9062 146.859 29.7188L156.445 30.375C156.32 31.8438 156.219 33.3047 156.141 34.7578C156.062 36.2109 156.023 37.6641 156.023 39.1172C156.023 40.6172 156.062 42.1094 156.141 43.5938C156.219 45.0625 156.32 46.5312 156.445 48C157.023 48.0469 157.562 48.0781 158.062 48.0938C158.562 48.0938 159.062 48.0938 159.562 48.0938C160.391 48.0938 161.188 48.0859 161.953 48.0703C162.734 48.0391 163.508 47.9844 164.273 47.9062C164.305 47.4062 164.32 46.8984 164.32 46.3828C164.32 45.8516 164.32 45.3359 164.32 44.8359C164.32 42.2266 164.25 39.6328 164.109 37.0547C163.984 34.4766 163.766 31.8984 163.453 29.3203L173.203 29.7188ZM197.109 24.8672C195.094 24.7734 193.094 24.7266 191.109 24.7266H190.969C190.969 25.3828 190.961 26.3047 190.945 27.4922C190.945 28.6641 190.945 29.9844 190.945 31.4531C190.945 32.9062 190.938 34.4453 190.922 36.0703C190.906 37.6953 190.898 39.2734 190.898 40.8047C190.898 42.3359 190.891 43.7656 190.875 45.0938C190.875 46.4062 190.875 47.5 190.875 48.375H196.008V54.2812H176.602V48.375H180.773C180.805 47.5625 180.836 46.5781 180.867 45.4219C180.914 44.2656 180.961 43.0156 181.008 41.6719C181.055 40.3281 181.102 38.9219 181.148 37.4531C181.211 35.9844 181.258 34.5234 181.289 33.0703C181.336 31.6016 181.375 30.1797 181.406 28.8047C181.438 27.4297 181.453 26.1641 181.453 25.0078C180.703 25.0391 179.961 25.0781 179.227 25.125C178.492 25.1562 177.75 25.1953 177 25.2422C177.047 24.5703 177.086 23.9453 177.117 23.3672C177.164 22.7734 177.188 22.1875 177.188 21.6094C177.188 21.1562 177.172 20.7031 177.141 20.25C177.125 19.7812 177.078 19.2734 177 18.7266C178.125 18.8047 179.398 18.8594 180.82 18.8906C182.242 18.9062 183.703 18.9141 185.203 18.9141C186.703 18.9141 188.156 18.9062 189.562 18.8906C190.984 18.875 192.258 18.8516 193.383 18.8203C194.695 18.7891 195.938 18.7578 197.109 18.7266V24.8672ZM225.469 41.7656C225.469 43.8438 225.359 45.9609 225.141 48.1172C224.922 50.2734 224.547 52.4297 224.016 54.5859H215.859C216.062 52.2578 216.219 49.9609 216.328 47.6953C216.438 45.4141 216.492 43.1172 216.492 40.8047C216.492 40.0234 216.492 39.25 216.492 38.4844C216.492 37.7031 216.477 36.9219 216.445 36.1406C215.742 36.0625 215.047 36.0156 214.359 36C213.672 35.9688 212.977 35.9531 212.273 35.9531C210.945 35.9531 209.578 36 208.172 36.0938C208.125 37.375 208.086 38.5625 208.055 39.6562C208.039 40.75 208.031 41.8359 208.031 42.9141C208.031 43.7109 208.039 44.5234 208.055 45.3516C208.07 46.1641 208.094 47.0391 208.125 47.9766C208.172 48.9141 208.227 49.9297 208.289 51.0234C208.352 52.1016 208.43 53.2891 208.523 54.5859H200.648C200.648 52.7109 200.641 51.0547 200.625 49.6172C200.609 48.1797 200.586 46.8594 200.555 45.6562C200.523 44.4375 200.477 43.2812 200.414 42.1875C200.367 41.0781 200.305 39.9219 200.227 38.7188C200.148 37.5 200.062 36.1797 199.969 34.7578C199.875 33.3203 199.766 31.6719 199.641 29.8125L208.523 29.2734L208.336 32.6016C209.227 31.9766 210.141 31.4922 211.078 31.1484C212.016 30.8047 212.875 30.5469 213.656 30.375C214.562 30.1875 215.445 30.0781 216.305 30.0469C217.445 30.0469 218.461 30.2031 219.352 30.5156C220.258 30.8281 221.047 31.2656 221.719 31.8281C222.406 32.375 222.984 33.0234 223.453 33.7734C223.922 34.5234 224.305 35.3359 224.602 36.2109C224.914 37.0703 225.133 37.9766 225.258 38.9297C225.398 39.8828 225.469 40.8281 225.469 41.7656ZM255.094 41.7656C255.094 43.8438 254.984 45.9609 254.766 48.1172C254.547 50.2734 254.172 52.4297 253.641 54.5859H245.484C245.688 52.2578 245.844 49.9609 245.953 47.6953C246.062 45.4141 246.117 43.1172 246.117 40.8047C246.117 40.0234 246.117 39.25 246.117 38.4844C246.117 37.7031 246.102 36.9219 246.07 36.1406C245.367 36.0625 244.672 36.0156 243.984 36C243.297 35.9688 242.602 35.9531 241.898 35.9531C240.57 35.9531 239.203 36 237.797 36.0938C237.75 37.375 237.711 38.5625 237.68 39.6562C237.664 40.75 237.656 41.8359 237.656 42.9141C237.656 43.7109 237.664 44.5234 237.68 45.3516C237.695 46.1641 237.719 47.0391 237.75 47.9766C237.797 48.9141 237.852 49.9297 237.914 51.0234C237.977 52.1016 238.055 53.2891 238.148 54.5859H230.273C230.273 52.7109 230.266 51.0547 230.25 49.6172C230.234 48.1797 230.211 46.8594 230.18 45.6562C230.148 44.4375 230.102 43.2812 230.039 42.1875C229.992 41.0781 229.93 39.9219 229.852 38.7188C229.773 37.5 229.688 36.1797 229.594 34.7578C229.5 33.3203 229.391 31.6719 229.266 29.8125L238.148 29.2734L237.961 32.6016C238.852 31.9766 239.766 31.4922 240.703 31.1484C241.641 30.8047 242.5 30.5469 243.281 30.375C244.188 30.1875 245.07 30.0781 245.93 30.0469C247.07 30.0469 248.086 30.2031 248.977 30.5156C249.883 30.8281 250.672 31.2656 251.344 31.8281C252.031 32.375 252.609 33.0234 253.078 33.7734C253.547 34.5234 253.93 35.3359 254.227 36.2109C254.539 37.0703 254.758 37.9766 254.883 38.9297C255.023 39.8828 255.094 40.8281 255.094 41.7656ZM276.258 49.1484C276.352 47.8203 276.414 46.5312 276.445 45.2812C276.492 44.0312 276.516 42.7969 276.516 41.5781C276.516 40.3125 276.492 39.0703 276.445 37.8516C276.414 36.6172 276.352 35.3438 276.258 34.0312C275.727 33.9531 275.195 33.9062 274.664 33.8906C274.148 33.8594 273.625 33.8438 273.094 33.8438C270.906 33.8438 268.797 34.0859 266.766 34.5703C266.719 35.4141 266.672 36.25 266.625 37.0781C266.594 37.9062 266.578 38.7344 266.578 39.5625C266.578 41.2188 266.641 42.875 266.766 44.5312C266.906 46.1719 267.109 47.8906 267.375 49.6875C267.734 49.7188 268.094 49.7344 268.453 49.7344C268.828 49.7344 269.211 49.7344 269.602 49.7344C270.68 49.7344 271.773 49.6875 272.883 49.5938C274.008 49.5 275.133 49.3516 276.258 49.1484ZM284.953 41.7656C284.953 43.625 284.586 45.375 283.852 47.0156C283.133 48.6406 282.148 50.0625 280.898 51.2812C279.648 52.5 278.18 53.4609 276.492 54.1641C274.82 54.8828 273.031 55.2422 271.125 55.2422C269.234 55.2422 267.492 54.8828 265.898 54.1641C264.32 53.4609 262.953 52.5 261.797 51.2812C260.656 50.0625 259.766 48.6406 259.125 47.0156C258.484 45.375 258.164 43.625 258.164 41.7656C258.164 39.4688 258.484 37.4766 259.125 35.7891C259.766 34.1016 260.656 32.7031 261.797 31.5938C262.953 30.4844 264.32 29.6641 265.898 29.1328C267.492 28.5859 269.234 28.3125 271.125 28.3125C273.031 28.3125 274.82 28.6172 276.492 29.2266C278.18 29.8359 279.648 30.7188 280.898 31.875C282.148 33.0312 283.133 34.4453 283.852 36.1172C284.586 37.7734 284.953 39.6562 284.953 41.7656ZM319.641 18.375C317.75 24.4062 316.031 30.4766 314.484 36.5859C312.953 42.6953 311.578 48.7578 310.359 54.7734C308.891 54.8359 307.344 54.8984 305.719 54.9609C304.328 55.0078 302.766 55.0469 301.031 55.0781C299.297 55.125 297.531 55.1484 295.734 55.1484L286.758 19.6406L297.984 18.9141C298.844 22.7266 299.68 26.4688 300.492 30.1406C300.836 31.7031 301.188 33.3359 301.547 35.0391C301.906 36.7266 302.258 38.4062 302.602 40.0781C302.945 41.7344 303.273 43.3438 303.586 44.9062C303.898 46.4531 304.172 47.8828 304.406 49.1953C304.875 47.4141 305.359 45.5234 305.859 43.5234C306.359 41.5234 306.844 39.5156 307.312 37.5C307.797 35.4688 308.258 33.4844 308.695 31.5469C309.148 29.5938 309.562 27.7734 309.938 26.0859C310.312 24.3984 310.633 22.8906 310.898 21.5625C311.18 20.2188 311.398 19.1562 311.555 18.375H319.641ZM346.781 43.0078L328.453 44.4844C328.531 45.4531 328.641 46.4141 328.781 47.3672C328.922 48.3203 329.102 49.2812 329.32 50.25C330.695 50.3438 332.023 50.3906 333.305 50.3906C334.008 50.3906 334.688 50.3828 335.344 50.3672C336 50.3359 336.68 50.2969 337.383 50.25C337.414 49.9375 337.438 49.625 337.453 49.3125C337.469 49 337.477 48.6875 337.477 48.375C337.477 48.0938 337.469 47.8203 337.453 47.5547C337.453 47.2734 337.43 46.9922 337.383 46.7109L346.219 46.8984C345.781 48.3828 345.148 49.6562 344.32 50.7188C343.508 51.7812 342.539 52.6562 341.414 53.3438C340.305 54.0156 339.062 54.5078 337.688 54.8203C336.312 55.1328 334.867 55.2891 333.352 55.2891C331.492 55.2891 329.742 55.0391 328.102 54.5391C326.477 54.0391 325.055 53.2344 323.836 52.125C322.633 51 321.68 49.5391 320.977 47.7422C320.289 45.9453 319.945 43.7422 319.945 41.1328C319.945 39.0234 320.312 37.2109 321.047 35.6953C321.781 34.1797 322.758 32.9297 323.977 31.9453C325.211 30.9609 326.633 30.2422 328.242 29.7891C329.867 29.3203 331.57 29.0859 333.352 29.0859C335.211 29.0859 336.953 29.3359 338.578 29.8359C340.219 30.3359 341.641 31.1172 342.844 32.1797C344.062 33.2422 345.023 34.6016 345.727 36.2578C346.43 37.9141 346.781 39.8906 346.781 42.1875V43.0078ZM328.219 39.5625H337.617C337.617 37.625 337.422 35.7812 337.031 34.0312C335.688 33.75 334.281 33.6094 332.812 33.6094C331.375 33.6094 329.922 33.75 328.453 34.0312C328.359 34.9062 328.297 35.7969 328.266 36.7031C328.234 37.5938 328.219 38.5469 328.219 39.5625ZM372 36.1406C370.484 36.0625 368.961 35.9922 367.43 35.9297C365.914 35.8672 364.398 35.8125 362.883 35.7656C362.695 38.875 362.531 41.9766 362.391 45.0703C362.25 48.1641 362.141 51.2812 362.062 54.4219L355.219 55.1016C355.312 49.3828 355.359 43.7188 355.359 38.1094V35.625H353.672C352.734 35.625 351.797 35.6328 350.859 35.6484C349.922 35.6641 348.984 35.6719 348.047 35.6719V29.7188C348.453 29.7188 348.859 29.7266 349.266 29.7422C349.688 29.7578 350.117 29.7656 350.555 29.7656H355.312C355.312 28.3125 355.305 26.8828 355.289 25.4766C355.273 24.0547 355.25 22.6328 355.219 21.2109H364.102C363.945 22.6172 363.805 24.0156 363.68 25.4062C363.57 26.7812 363.469 28.1562 363.375 29.5312C364.828 29.4688 366.258 29.4062 367.664 29.3438C369.086 29.2656 370.531 29.1797 372 29.0859V36.1406Z" fill="#C4D23D"/>
<defs>
<clipPath id="clip0_325_630">
<rect width="77" height="77" fill="white"/>
</clipPath>
</defs>
</svg>
