<svg width="64" height="64" viewBox="0 0 64 64" fill="none" xmlns="http://www.w3.org/2000/svg">
<g clip-path="url(#clip0_325_576)">
<path d="M43.0345 47.8897V55.1724C43.0345 60.0478 39.0822 64 34.2069 64H29.7931C24.9178 64 20.9655 60.0478 20.9655 55.1724V44.1379C20.9655 43.5285 20.4715 43.0345 19.8621 43.0345H8.82759C3.95224 43.0345 0 39.0822 0 34.2069V29.7931C0 24.9178 3.95224 20.9655 8.82759 20.9655H19.8621C20.4715 20.9655 20.9655 20.4715 20.9655 19.8621V8.82759C20.9655 3.95224 24.9178 0 29.7931 0H34.2069C39.0822 0 43.0345 3.95224 43.0345 8.82759V47.8897Z" fill="#C4D23D"/>
<path d="M45.2413 47.4483C48.5803 47.4483 48.5803 49.6552 51.9624 49.6552C57.003 49.6552 57.4796 43.0345 54.145 39.7241C50.8104 36.4138 50.806 32 45.2413 32C39.6766 32 39.6766 36.4138 36.3376 39.7241C32.9985 43.0345 33.4796 49.6552 38.5202 49.6552C41.9023 49.6552 41.9023 47.4483 45.2413 47.4483Z" fill="#39A6EC"/>
<path d="M39.4477 28.6477C41.8616 28.3014 43.4325 25.3303 42.9565 22.0114C42.4804 18.6925 40.1377 16.2827 37.7238 16.6289C35.3099 16.9752 33.7389 19.9463 34.215 23.2652C34.691 26.5841 37.0338 28.9939 39.4477 28.6477Z" fill="#39A6EC"/>
<path d="M31.9517 36.1724C33.5971 35.3753 34.0694 32.9506 33.0066 30.7567C31.9437 28.5628 29.7483 27.4305 28.1028 28.2276C26.4574 29.0247 25.9851 31.4494 27.0479 33.6433C28.1108 35.8372 30.3062 36.9695 31.9517 36.1724Z" fill="#39A6EC"/>
<path d="M56.2617 23.2325C56.7377 19.9143 55.1672 16.9437 52.7539 16.5975C50.3406 16.2514 47.9984 18.6607 47.5224 21.979C47.0465 25.2973 48.617 28.2679 51.0303 28.6141C53.4436 28.9602 55.7858 26.5508 56.2617 23.2325Z" fill="#39A6EC"/>
<path d="M63.4211 33.6085C64.4839 31.4146 64.0117 28.9899 62.3662 28.1928C60.7208 27.3957 58.5253 28.528 57.4625 30.7219C56.3997 32.9158 56.872 35.3405 58.5174 36.1376C60.1628 36.9348 62.3583 35.8024 63.4211 33.6085Z" fill="#39A6EC"/>
<path d="M4.41375 30.8961C3.80433 30.8961 3.3103 30.402 3.3103 29.7926C3.31395 26.7471 5.78197 24.279 8.82754 24.2754C9.43696 24.2754 9.93099 24.7694 9.93099 25.3788C9.93099 25.9883 9.43696 26.4823 8.82754 26.4823C6.99929 26.4823 5.5172 27.9644 5.5172 29.7926C5.5172 30.0853 5.40094 30.366 5.19401 30.5729C4.98707 30.7798 4.7064 30.8961 4.41375 30.8961Z" fill="#AFBA49"/>
<path d="M14.3448 26.4823H13.2414C12.632 26.4823 12.1379 25.9883 12.1379 25.3788C12.1379 24.7694 12.632 24.2754 13.2414 24.2754H14.3448C14.9543 24.2754 15.4483 24.7694 15.4483 25.3788C15.4483 25.9883 14.9543 26.4823 14.3448 26.4823Z" fill="#AFBA49"/>
</g>
<defs>
<clipPath id="clip0_325_576">
<rect width="64" height="64" fill="white"/>
</clipPath>
</defs>
</svg>
