<svg width="205" height="46" viewBox="0 0 205 46" fill="none" xmlns="http://www.w3.org/2000/svg">
<g clip-path="url(#clip0_202_570)">
<path d="M30.931 34.4207V39.6552C30.931 43.1593 28.0904 46 24.5862 46H21.4138C17.9096 46 15.069 43.1593 15.069 39.6552V31.7241C15.069 31.2861 14.7139 30.931 14.2759 30.931H6.34483C2.84068 30.931 0 28.0904 0 24.5862V21.4138C0 17.9096 2.84068 15.069 6.34483 15.069H14.2759C14.7139 15.069 15.069 14.7139 15.069 14.2759V6.34483C15.069 2.84068 17.9096 0 21.4138 0H24.5862C28.0904 0 30.931 2.84068 30.931 6.34483V34.4207Z" fill="#C4D23D"/>
<path d="M32.517 34.1034C34.9169 34.1034 34.9169 35.6897 37.3478 35.6897C40.9707 35.6897 41.3133 30.931 38.9165 28.5517C36.5198 26.1724 36.5166 23 32.517 23C28.5174 23 28.5174 26.1724 26.1174 28.5517C23.7175 30.931 24.0633 35.6897 27.6862 35.6897C30.1171 35.6897 30.1171 34.1034 32.517 34.1034Z" fill="#39A6EC"/>
<path d="M28.3512 20.5902C30.0862 20.3414 31.2153 18.2058 30.8732 15.8204C30.531 13.4349 28.8472 11.7029 27.1122 11.9517C25.3772 12.2006 24.2481 14.3361 24.5902 16.7216C24.9324 19.107 26.6162 20.8391 28.3512 20.5902Z" fill="#39A6EC"/>
<path d="M22.9644 25.9982C24.147 25.4252 24.4865 23.6825 23.7226 22.1056C22.9587 20.5287 21.3807 19.7149 20.198 20.2878C19.0154 20.8607 18.6759 22.6035 19.4398 24.1804C20.2037 25.7572 21.7817 26.5711 22.9644 25.9982Z" fill="#39A6EC"/>
<path d="M40.4379 16.6978C40.78 14.3127 39.6512 12.1776 37.9166 11.9288C36.1821 11.68 34.4986 13.4118 34.1565 15.7968C33.8144 18.1818 34.9432 20.3169 36.6778 20.5657C38.4124 20.8145 40.0958 19.0828 40.4379 16.6978Z" fill="#39A6EC"/>
<path d="M45.5839 24.1561C46.3478 22.5792 46.0083 20.8365 44.8257 20.2636C43.643 19.6906 42.065 20.5045 41.3011 22.0814C40.5372 23.6582 40.8767 25.401 42.0593 25.9739C43.242 26.5468 44.82 25.733 45.5839 24.1561Z" fill="#39A6EC"/>
<path d="M3.17201 22.2069C2.73399 22.2069 2.37891 21.8518 2.37891 21.4138C2.38153 19.2248 4.15542 17.4509 6.34442 17.4482C6.78244 17.4482 7.13753 17.8033 7.13753 18.2413C7.13753 18.6794 6.78244 19.0344 6.34442 19.0344C5.03037 19.0344 3.96511 20.0997 3.96511 21.4138C3.96511 21.6241 3.88155 21.8258 3.73282 21.9746C3.58408 22.1233 3.38235 22.2069 3.17201 22.2069Z" fill="#AFBA49"/>
<path d="M10.3108 19.0344H9.51771C9.07969 19.0344 8.72461 18.6794 8.72461 18.2413C8.72461 17.8033 9.07969 17.4482 9.51771 17.4482H10.3108C10.7488 17.4482 11.1039 17.8033 11.1039 18.2413C11.1039 18.6794 10.7488 19.0344 10.3108 19.0344Z" fill="#AFBA49"/>
</g>
<path d="M76.7305 31.4102C76.6992 31.2305 76.6562 30.9023 76.6016 30.4258C76.5469 29.9492 76.4844 29.3867 76.4141 28.7383C76.3516 28.0898 76.2812 27.3789 76.2031 26.6055C76.125 25.832 76.0508 25.0547 75.9805 24.2734C75.8008 22.4453 75.6133 20.4297 75.418 18.2266L72.8516 31.0938L67.8359 31.4102C67.4141 29.6758 67.0156 27.9961 66.6406 26.3711C66.4766 25.6836 66.3086 24.9727 66.1367 24.2383C65.9727 23.4961 65.8086 22.7734 65.6445 22.0703C65.4883 21.3594 65.3398 20.6836 65.1992 20.043C65.0664 19.4023 64.9531 18.832 64.8594 18.332C64.8281 18.7539 64.7852 19.2656 64.7305 19.8672C64.6836 20.4609 64.6289 21.1055 64.5664 21.8008C64.5117 22.4883 64.4492 23.2031 64.3789 23.9453C64.3164 24.6875 64.25 25.4141 64.1797 26.125C64.0234 27.7969 63.8555 29.5586 63.6758 31.4102H59.5273C59.9883 28.5117 60.3867 25.6211 60.7227 22.7383C61.0664 19.8555 61.3242 16.9297 61.4961 13.9609L68.3164 13.5977L71.0938 26.3242C71.4297 24.7227 71.7461 23.1523 72.043 21.6133C72.168 20.957 72.293 20.2734 72.418 19.5625C72.5508 18.8516 72.6719 18.1484 72.7812 17.4531C72.8906 16.75 72.9922 16.0703 73.0859 15.4141C73.1797 14.7578 73.2539 14.1523 73.3086 13.5977H79.7891C79.9453 16.4727 80.168 19.3477 80.457 22.2227C80.7461 25.0977 81.1133 28.0078 81.5586 30.9531L76.7305 31.4102ZM96.1016 18.8594C96.0625 20.9062 96.0117 22.6719 95.9492 24.1562C95.8867 25.6406 95.8242 26.8789 95.7617 27.8711C95.6914 29.0273 95.6211 30 95.5508 30.7891C95.5039 31.7344 95.3281 32.5977 95.0234 33.3789C94.7266 34.1602 94.3047 34.832 93.7578 35.3945C93.2109 35.957 92.5469 36.3906 91.7656 36.6953C90.9844 37.0078 90.0859 37.1641 89.0703 37.1641C88.3906 37.1641 87.7969 37.1211 87.2891 37.0352C86.7812 36.957 86.3359 36.8359 85.9531 36.6719C85.5781 36.5156 85.2539 36.3203 84.9805 36.0859C84.7148 35.8516 84.4805 35.5781 84.2773 35.2656C84.0742 34.9609 83.8945 34.6172 83.7383 34.2344C83.5898 33.8516 83.4453 33.4375 83.3047 32.9922L87.6055 32.8984C87.6055 33.0078 87.6016 33.1094 87.5938 33.2031C87.5859 33.3047 87.582 33.4023 87.582 33.4961C87.582 34.082 87.6289 34.6484 87.7227 35.1953C88.0273 35.2344 88.293 35.2656 88.5195 35.2891C88.7461 35.3125 88.9688 35.3242 89.1875 35.3242C89.4844 35.3242 89.7891 35.3047 90.1016 35.2656C90.4141 35.2266 90.7891 35.1719 91.2266 35.1016C91.3047 34.2812 91.3711 33.4648 91.4258 32.6523C91.4805 31.8477 91.5273 31.0391 91.5664 30.2266C91.2383 30.3672 90.9219 30.4766 90.6172 30.5547C90.3203 30.625 90.0586 30.6797 89.832 30.7188C89.5664 30.7578 89.3125 30.7812 89.0703 30.7891C87.9375 30.7891 87.0039 30.6484 86.2695 30.3672C85.5352 30.0781 84.9414 29.6758 84.4883 29.1602C84.043 28.6367 83.7148 28.0117 83.5039 27.2852C83.3008 26.5508 83.1602 25.7422 83.082 24.8594C83.0039 23.9766 82.9648 23.0312 82.9648 22.0234C82.9648 21.0078 82.9531 19.9531 82.9297 18.8594L87.7227 19.1875C87.6602 19.9219 87.6094 20.6523 87.5703 21.3789C87.5312 22.1055 87.5117 22.832 87.5117 23.5586C87.5117 24.3086 87.5312 25.0547 87.5703 25.7969C87.6094 26.5312 87.6602 27.2656 87.7227 28C88.0117 28.0234 88.2812 28.0391 88.5312 28.0469C88.7812 28.0469 89.0312 28.0469 89.2812 28.0469C89.6953 28.0469 90.0938 28.043 90.4766 28.0352C90.8672 28.0195 91.2539 27.9922 91.6367 27.9531C91.6523 27.7031 91.6602 27.4492 91.6602 27.1914C91.6602 26.9258 91.6602 26.668 91.6602 26.418C91.6602 25.1133 91.625 23.8164 91.5547 22.5273C91.4922 21.2383 91.3828 19.9492 91.2266 18.6602L96.1016 18.8594ZM108.055 16.4336C107.047 16.3867 106.047 16.3633 105.055 16.3633H104.984C104.984 16.6914 104.98 17.1523 104.973 17.7461C104.973 18.332 104.973 18.9922 104.973 19.7266C104.973 20.4531 104.969 21.2227 104.961 22.0352C104.953 22.8477 104.949 23.6367 104.949 24.4023C104.949 25.168 104.945 25.8828 104.938 26.5469C104.938 27.2031 104.938 27.75 104.938 28.1875H107.504V31.1406H97.8008V28.1875H99.8867C99.9023 27.7812 99.918 27.2891 99.9336 26.7109C99.957 26.1328 99.9805 25.5078 100.004 24.8359C100.027 24.1641 100.051 23.4609 100.074 22.7266C100.105 21.9922 100.129 21.2617 100.145 20.5352C100.168 19.8008 100.188 19.0898 100.203 18.4023C100.219 17.7148 100.227 17.082 100.227 16.5039C99.8516 16.5195 99.4805 16.5391 99.1133 16.5625C98.7461 16.5781 98.375 16.5977 98 16.6211C98.0234 16.2852 98.043 15.9727 98.0586 15.6836C98.082 15.3867 98.0938 15.0938 98.0938 14.8047C98.0938 14.5781 98.0859 14.3516 98.0703 14.125C98.0625 13.8906 98.0391 13.6367 98 13.3633C98.5625 13.4023 99.1992 13.4297 99.9102 13.4453C100.621 13.4531 101.352 13.457 102.102 13.457C102.852 13.457 103.578 13.4531 104.281 13.4453C104.992 13.4375 105.629 13.4258 106.191 13.4102C106.848 13.3945 107.469 13.3789 108.055 13.3633V16.4336ZM122.234 24.8828C122.234 25.9219 122.18 26.9805 122.07 28.0586C121.961 29.1367 121.773 30.2148 121.508 31.293H117.43C117.531 30.1289 117.609 28.9805 117.664 27.8477C117.719 26.707 117.746 25.5586 117.746 24.4023C117.746 24.0117 117.746 23.625 117.746 23.2422C117.746 22.8516 117.738 22.4609 117.723 22.0703C117.371 22.0312 117.023 22.0078 116.68 22C116.336 21.9844 115.988 21.9766 115.637 21.9766C114.973 21.9766 114.289 22 113.586 22.0469C113.562 22.6875 113.543 23.2812 113.527 23.8281C113.52 24.375 113.516 24.918 113.516 25.457C113.516 25.8555 113.52 26.2617 113.527 26.6758C113.535 27.082 113.547 27.5195 113.562 27.9883C113.586 28.457 113.613 28.9648 113.645 29.5117C113.676 30.0508 113.715 30.6445 113.762 31.293H109.824C109.824 30.3555 109.82 29.5273 109.812 28.8086C109.805 28.0898 109.793 27.4297 109.777 26.8281C109.762 26.2188 109.738 25.6406 109.707 25.0938C109.684 24.5391 109.652 23.9609 109.613 23.3594C109.574 22.75 109.531 22.0898 109.484 21.3789C109.438 20.6602 109.383 19.8359 109.32 18.9062L113.762 18.6367L113.668 20.3008C114.113 19.9883 114.57 19.7461 115.039 19.5742C115.508 19.4023 115.938 19.2734 116.328 19.1875C116.781 19.0938 117.223 19.0391 117.652 19.0234C118.223 19.0234 118.73 19.1016 119.176 19.2578C119.629 19.4141 120.023 19.6328 120.359 19.9141C120.703 20.1875 120.992 20.5117 121.227 20.8867C121.461 21.2617 121.652 21.668 121.801 22.1055C121.957 22.5352 122.066 22.9883 122.129 23.4648C122.199 23.9414 122.234 24.4141 122.234 24.8828ZM137.047 24.8828C137.047 25.9219 136.992 26.9805 136.883 28.0586C136.773 29.1367 136.586 30.2148 136.32 31.293H132.242C132.344 30.1289 132.422 28.9805 132.477 27.8477C132.531 26.707 132.559 25.5586 132.559 24.4023C132.559 24.0117 132.559 23.625 132.559 23.2422C132.559 22.8516 132.551 22.4609 132.535 22.0703C132.184 22.0312 131.836 22.0078 131.492 22C131.148 21.9844 130.801 21.9766 130.449 21.9766C129.785 21.9766 129.102 22 128.398 22.0469C128.375 22.6875 128.355 23.2812 128.34 23.8281C128.332 24.375 128.328 24.918 128.328 25.457C128.328 25.8555 128.332 26.2617 128.34 26.6758C128.348 27.082 128.359 27.5195 128.375 27.9883C128.398 28.457 128.426 28.9648 128.457 29.5117C128.488 30.0508 128.527 30.6445 128.574 31.293H124.637C124.637 30.3555 124.633 29.5273 124.625 28.8086C124.617 28.0898 124.605 27.4297 124.59 26.8281C124.574 26.2188 124.551 25.6406 124.52 25.0938C124.496 24.5391 124.465 23.9609 124.426 23.3594C124.387 22.75 124.344 22.0898 124.297 21.3789C124.25 20.6602 124.195 19.8359 124.133 18.9062L128.574 18.6367L128.48 20.3008C128.926 19.9883 129.383 19.7461 129.852 19.5742C130.32 19.4023 130.75 19.2734 131.141 19.1875C131.594 19.0938 132.035 19.0391 132.465 19.0234C133.035 19.0234 133.543 19.1016 133.988 19.2578C134.441 19.4141 134.836 19.6328 135.172 19.9141C135.516 20.1875 135.805 20.5117 136.039 20.8867C136.273 21.2617 136.465 21.668 136.613 22.1055C136.77 22.5352 136.879 22.9883 136.941 23.4648C137.012 23.9414 137.047 24.4141 137.047 24.8828ZM147.629 28.5742C147.676 27.9102 147.707 27.2656 147.723 26.6406C147.746 26.0156 147.758 25.3984 147.758 24.7891C147.758 24.1562 147.746 23.5352 147.723 22.9258C147.707 22.3086 147.676 21.6719 147.629 21.0156C147.363 20.9766 147.098 20.9531 146.832 20.9453C146.574 20.9297 146.312 20.9219 146.047 20.9219C144.953 20.9219 143.898 21.043 142.883 21.2852C142.859 21.707 142.836 22.125 142.812 22.5391C142.797 22.9531 142.789 23.3672 142.789 23.7812C142.789 24.6094 142.82 25.4375 142.883 26.2656C142.953 27.0859 143.055 27.9453 143.188 28.8438C143.367 28.8594 143.547 28.8672 143.727 28.8672C143.914 28.8672 144.105 28.8672 144.301 28.8672C144.84 28.8672 145.387 28.8438 145.941 28.7969C146.504 28.75 147.066 28.6758 147.629 28.5742ZM151.977 24.8828C151.977 25.8125 151.793 26.6875 151.426 27.5078C151.066 28.3203 150.574 29.0312 149.949 29.6406C149.324 30.25 148.59 30.7305 147.746 31.082C146.91 31.4414 146.016 31.6211 145.062 31.6211C144.117 31.6211 143.246 31.4414 142.449 31.082C141.66 30.7305 140.977 30.25 140.398 29.6406C139.828 29.0312 139.383 28.3203 139.062 27.5078C138.742 26.6875 138.582 25.8125 138.582 24.8828C138.582 23.7344 138.742 22.7383 139.062 21.8945C139.383 21.0508 139.828 20.3516 140.398 19.7969C140.977 19.2422 141.66 18.832 142.449 18.5664C143.246 18.293 144.117 18.1562 145.062 18.1562C146.016 18.1562 146.91 18.3086 147.746 18.6133C148.59 18.918 149.324 19.3594 149.949 19.9375C150.574 20.5156 151.066 21.2227 151.426 22.0586C151.793 22.8867 151.977 23.8281 151.977 24.8828ZM169.32 13.1875C168.375 16.2031 167.516 19.2383 166.742 22.293C165.977 25.3477 165.289 28.3789 164.68 31.3867C163.945 31.418 163.172 31.4492 162.359 31.4805C161.664 31.5039 160.883 31.5234 160.016 31.5391C159.148 31.5625 158.266 31.5742 157.367 31.5742L152.879 13.8203L158.492 13.457C158.922 15.3633 159.34 17.2344 159.746 19.0703C159.918 19.8516 160.094 20.668 160.273 21.5195C160.453 22.3633 160.629 23.2031 160.801 24.0391C160.973 24.8672 161.137 25.6719 161.293 26.4531C161.449 27.2266 161.586 27.9414 161.703 28.5977C161.938 27.707 162.18 26.7617 162.43 25.7617C162.68 24.7617 162.922 23.7578 163.156 22.75C163.398 21.7344 163.629 20.7422 163.848 19.7734C164.074 18.7969 164.281 17.8867 164.469 17.043C164.656 16.1992 164.816 15.4453 164.949 14.7812C165.09 14.1094 165.199 13.5781 165.277 13.1875H169.32ZM182.891 25.5039L173.727 26.2422C173.766 26.7266 173.82 27.207 173.891 27.6836C173.961 28.1602 174.051 28.6406 174.16 29.125C174.848 29.1719 175.512 29.1953 176.152 29.1953C176.504 29.1953 176.844 29.1914 177.172 29.1836C177.5 29.168 177.84 29.1484 178.191 29.125C178.207 28.9688 178.219 28.8125 178.227 28.6562C178.234 28.5 178.238 28.3438 178.238 28.1875C178.238 28.0469 178.234 27.9102 178.227 27.7773C178.227 27.6367 178.215 27.4961 178.191 27.3555L182.609 27.4492C182.391 28.1914 182.074 28.8281 181.66 29.3594C181.254 29.8906 180.77 30.3281 180.207 30.6719C179.652 31.0078 179.031 31.2539 178.344 31.4102C177.656 31.5664 176.934 31.6445 176.176 31.6445C175.246 31.6445 174.371 31.5195 173.551 31.2695C172.738 31.0195 172.027 30.6172 171.418 30.0625C170.816 29.5 170.34 28.7695 169.988 27.8711C169.645 26.9727 169.473 25.8711 169.473 24.5664C169.473 23.5117 169.656 22.6055 170.023 21.8477C170.391 21.0898 170.879 20.4648 171.488 19.9727C172.105 19.4805 172.816 19.1211 173.621 18.8945C174.434 18.6602 175.285 18.543 176.176 18.543C177.105 18.543 177.977 18.668 178.789 18.918C179.609 19.168 180.32 19.5586 180.922 20.0898C181.531 20.6211 182.012 21.3008 182.363 22.1289C182.715 22.957 182.891 23.9453 182.891 25.0938V25.5039ZM173.609 23.7812H178.309C178.309 22.8125 178.211 21.8906 178.016 21.0156C177.344 20.875 176.641 20.8047 175.906 20.8047C175.188 20.8047 174.461 20.875 173.727 21.0156C173.68 21.4531 173.648 21.8984 173.633 22.3516C173.617 22.7969 173.609 23.2734 173.609 23.7812ZM195.5 22.0703C194.742 22.0312 193.98 21.9961 193.215 21.9648C192.457 21.9336 191.699 21.9062 190.941 21.8828C190.848 23.4375 190.766 24.9883 190.695 26.5352C190.625 28.082 190.57 29.6406 190.531 31.2109L187.109 31.5508C187.156 28.6914 187.18 25.8594 187.18 23.0547V21.8125H186.336C185.867 21.8125 185.398 21.8164 184.93 21.8242C184.461 21.832 183.992 21.8359 183.523 21.8359V18.8594C183.727 18.8594 183.93 18.8633 184.133 18.8711C184.344 18.8789 184.559 18.8828 184.777 18.8828H187.156C187.156 18.1562 187.152 17.4414 187.145 16.7383C187.137 16.0273 187.125 15.3164 187.109 14.6055H191.551C191.473 15.3086 191.402 16.0078 191.34 16.7031C191.285 17.3906 191.234 18.0781 191.188 18.7656C191.914 18.7344 192.629 18.7031 193.332 18.6719C194.043 18.6328 194.766 18.5898 195.5 18.543V22.0703Z" fill="#C4D23D"/>
<defs>
<clipPath id="clip0_202_570">
<rect width="46" height="46" fill="white"/>
</clipPath>
</defs>
</svg>
