<svg width="30" height="30" viewBox="0 0 30 30" fill="none" xmlns="http://www.w3.org/2000/svg">
<g clip-path="url(#clip0_217_572)">
<path d="M20.1724 22.4483V25.8621C20.1724 28.1474 18.3198 30 16.0345 30H13.9655C11.6802 30 9.82759 28.1474 9.82759 25.8621V20.6897C9.82759 20.404 9.59601 20.1724 9.31034 20.1724H4.13793C1.85261 20.1724 0 18.3198 0 16.0345V13.9655C0 11.6802 1.85261 9.82759 4.13793 9.82759H9.31034C9.59601 9.82759 9.82759 9.59601 9.82759 9.31034V4.13793C9.82759 1.85261 11.6802 0 13.9655 0H16.0345C18.3198 0 20.1724 1.85261 20.1724 4.13793V22.4483Z" fill="#C4D23D"/>
<path d="M21.2069 22.2414C22.772 22.2414 22.772 23.2759 24.3574 23.2759C26.7201 23.2759 26.9436 20.1724 25.3805 18.6207C23.8174 17.069 23.8153 15 21.2069 15C18.5984 15 18.5984 17.069 17.0332 18.6207C15.4681 20.1724 15.6936 23.2759 18.0563 23.2759C19.6417 23.2759 19.6417 22.2414 21.2069 22.2414Z" fill="#39A6EC"/>
<path d="M18.4911 13.4287C19.6227 13.2664 20.359 11.8736 20.1359 10.3179C19.9127 8.76219 18.8146 7.63259 17.6831 7.79489C16.5516 7.95719 15.8152 9.34992 16.0383 10.9056C16.2615 12.4614 17.3596 13.591 18.4911 13.4287Z" fill="#39A6EC"/>
<path d="M14.9773 16.9559C15.7486 16.5822 15.97 15.4456 15.4718 14.4173C14.9736 13.3889 13.9445 12.8581 13.1732 13.2317C12.4019 13.6054 12.1805 14.742 12.6787 15.7704C13.1769 16.7988 14.206 17.3295 14.9773 16.9559Z" fill="#39A6EC"/>
<path d="M26.3726 10.8902C26.5957 9.33475 25.8595 7.94228 24.7283 7.78002C23.597 7.61776 22.4991 8.74716 22.276 10.3026C22.0529 11.858 22.7891 13.2505 23.9203 13.4128C25.0516 13.575 26.1495 12.4456 26.3726 10.8902Z" fill="#39A6EC"/>
<path d="M29.7286 15.754C30.2268 14.7256 30.0054 13.589 29.2341 13.2154C28.4628 12.8417 27.4337 13.3725 26.9355 14.4009C26.4373 15.4293 26.6587 16.5659 27.43 16.9395C28.2013 17.3132 29.2304 16.7824 29.7286 15.754Z" fill="#39A6EC"/>
<path d="M2.069 14.4828C1.78333 14.4828 1.55176 14.2512 1.55176 13.9655C1.55347 12.5379 2.71035 11.381 4.13796 11.3793C4.42363 11.3793 4.65521 11.6109 4.65521 11.8966C4.65521 12.1822 4.42363 12.4138 4.13796 12.4138C3.28097 12.4138 2.58624 13.1085 2.58624 13.9655C2.58624 14.1027 2.53175 14.2343 2.43474 14.3313C2.33774 14.4283 2.20618 14.4828 2.069 14.4828Z" fill="#AFBA49"/>
<path d="M6.72418 12.4138H6.20694C5.92127 12.4138 5.6897 12.1822 5.6897 11.8966C5.6897 11.6109 5.92127 11.3793 6.20694 11.3793H6.72418C7.00984 11.3793 7.24142 11.6109 7.24142 11.8966C7.24142 12.1822 7.00984 12.4138 6.72418 12.4138Z" fill="#AFBA49"/>
</g>
<defs>
<clipPath id="clip0_217_572">
<rect width="30" height="30" fill="white"/>
</clipPath>
</defs>
</svg>
